<?xml version="1.0" encoding="UTF-8" standalone="no"?>
<!DOCTYPE svg PUBLIC "-//W3C//DTD SVG 1.1//EN"
 "http://www.w3.org/Graphics/SVG/1.1/DTD/svg11.dtd">
<!-- Generated by graphviz version 2.44.1 (20200629.0846)
 -->
<!-- Title: dependencies Pages: 1 -->
<svg width="2122pt" height="211pt"
 viewBox="0.00 0.00 2122.00 211.00" xmlns="http://www.w3.org/2000/svg" xmlns:xlink="http://www.w3.org/1999/xlink">
<g id="graph0" class="graph" transform="scale(1 1) rotate(0) translate(4 207)">
<title>dependencies</title>
<polygon fill="white" stroke="transparent" points="-4,4 -4,-207 2118,-207 2118,4 -4,4"/>
<text text-anchor="start" x="1036.01" y="-42.4" font-family="sans-serif" font-weight="bold" font-size="14.00">Legend</text>
<polygon fill="#ffffb3" stroke="transparent" points="823,-10 823,-30 843,-30 843,-10 823,-10"/>
<text text-anchor="start" x="846.63" y="-15.4" font-family="sans-serif" font-size="14.00"> &#160;Declarations</text>
<polygon fill="#8dd3c7" stroke="transparent" points="936,-10 936,-30 956,-30 956,-10 936,-10"/>
<text text-anchor="start" x="959.73" y="-15.4" font-family="sans-serif" font-size="14.00"> &#160;Module</text>
<polygon fill="#80b1d3" stroke="transparent" points="1022,-10 1022,-30 1042,-30 1042,-10 1022,-10"/>
<text text-anchor="start" x="1045.78" y="-15.4" font-family="sans-serif" font-size="14.00"> &#160;Bootstrap</text>
<polygon fill="#fdb462" stroke="transparent" points="1119,-10 1119,-30 1139,-30 1139,-10 1119,-10"/>
<text text-anchor="start" x="1142.67" y="-15.4" font-family="sans-serif" font-size="14.00"> &#160;Providers</text>
<polygon fill="#fb8072" stroke="transparent" points="1215,-10 1215,-30 1235,-30 1235,-10 1215,-10"/>
<text text-anchor="start" x="1238.73" y="-15.4" font-family="sans-serif" font-size="14.00"> &#160;Exports</text>
<g id="clust1" class="cluster">
<title>cluster_ComponentModule</title>
<polygon fill="none" stroke="black" stroke-dasharray="1,5" points="8,-70 8,-195 2106,-195 2106,-70 8,-70"/>
</g>
<g id="clust13" class="cluster">
<title>cluster_ComponentModule_imports</title>
<polygon fill="none" stroke="black" points="1439,-78 1439,-130 2098,-130 2098,-78 1439,-78"/>
</g>
<g id="clust2" class="cluster">
<title>cluster_ComponentModule_declarations</title>
<polygon fill="none" stroke="black" points="16,-78 16,-130 1431,-130 1431,-78 16,-78"/>
</g>
<!-- DashboardComponent -->
<g id="node1" class="node">
<title>DashboardComponent</title>
<polygon fill="#ffffb3" stroke="black" points="1422.97,-122 1281.03,-122 1281.03,-86 1422.97,-86 1422.97,-122"/>
<text text-anchor="middle" x="1352" y="-99.8" font-family="Times,serif" font-size="14.00">DashboardComponent</text>
</g>
<!-- ComponentModule -->
<g id="node11" class="node">
<title>ComponentModule</title>
<polygon fill="#8dd3c7" stroke="black" points="1119.38,-187 1116.38,-191 1095.38,-191 1092.38,-187 994.62,-187 994.62,-151 1119.38,-151 1119.38,-187"/>
<text text-anchor="middle" x="1057" y="-164.8" font-family="Times,serif" font-size="14.00">ComponentModule</text>
</g>
<!-- DashboardComponent&#45;&gt;ComponentModule -->
<g id="edge1" class="edge">
<title>DashboardComponent&#45;&gt;ComponentModule</title>
<path fill="none" stroke="black" d="M1352,-122.03C1352,-138.4 1352,-160 1352,-160 1352,-160 1129.56,-160 1129.56,-160"/>
<polygon fill="black" stroke="black" points="1129.56,-156.5 1119.56,-160 1129.56,-163.5 1129.56,-156.5"/>
</g>
<!-- UsersComponent -->
<g id="node2" class="node">
<title>UsersComponent</title>
<polygon fill="#ffffb3" stroke="black" points="1262.7,-122 1149.3,-122 1149.3,-86 1262.7,-86 1262.7,-122"/>
<text text-anchor="middle" x="1206" y="-99.8" font-family="Times,serif" font-size="14.00">UsersComponent</text>
</g>
<!-- UsersComponent&#45;&gt;ComponentModule -->
<g id="edge2" class="edge">
<title>UsersComponent&#45;&gt;ComponentModule</title>
<path fill="none" stroke="black" d="M1206,-122.19C1206,-137.18 1206,-156 1206,-156 1206,-156 1129.76,-156 1129.76,-156"/>
<polygon fill="black" stroke="black" points="1129.76,-152.5 1119.76,-156 1129.76,-159.5 1129.76,-152.5"/>
</g>
<!-- UsersModalComponent -->
<g id="node3" class="node">
<title>UsersModalComponent</title>
<polygon fill="#ffffb3" stroke="black" points="1131.75,-122 982.25,-122 982.25,-86 1131.75,-86 1131.75,-122"/>
<text text-anchor="middle" x="1057" y="-99.8" font-family="Times,serif" font-size="14.00">UsersModalComponent</text>
</g>
<!-- UsersModalComponent&#45;&gt;ComponentModule -->
<g id="edge3" class="edge">
<title>UsersModalComponent&#45;&gt;ComponentModule</title>
<path fill="none" stroke="black" d="M1057,-122.11C1057,-122.11 1057,-140.99 1057,-140.99"/>
<polygon fill="black" stroke="black" points="1053.5,-140.99 1057,-150.99 1060.5,-140.99 1053.5,-140.99"/>
</g>
<!-- HeaderComponent -->
<g id="node4" class="node">
<title>HeaderComponent</title>
<polygon fill="#ffffb3" stroke="black" points="963.74,-122 842.26,-122 842.26,-86 963.74,-86 963.74,-122"/>
<text text-anchor="middle" x="903" y="-99.8" font-family="Times,serif" font-size="14.00">HeaderComponent</text>
</g>
<!-- HeaderComponent&#45;&gt;ComponentModule -->
<g id="edge4" class="edge">
<title>HeaderComponent&#45;&gt;ComponentModule</title>
<path fill="none" stroke="black" d="M903,-122.19C903,-137.18 903,-156 903,-156 903,-156 984.36,-156 984.36,-156"/>
<polygon fill="black" stroke="black" points="984.36,-159.5 994.36,-156 984.36,-152.5 984.36,-159.5"/>
</g>
<!-- SidebarComponent -->
<g id="node5" class="node">
<title>SidebarComponent</title>
<polygon fill="#ffffb3" stroke="black" points="824.1,-122 699.9,-122 699.9,-86 824.1,-86 824.1,-122"/>
<text text-anchor="middle" x="762" y="-99.8" font-family="Times,serif" font-size="14.00">SidebarComponent</text>
</g>
<!-- SidebarComponent&#45;&gt;ComponentModule -->
<g id="edge5" class="edge">
<title>SidebarComponent&#45;&gt;ComponentModule</title>
<path fill="none" stroke="black" d="M762,-122.03C762,-138.4 762,-160 762,-160 762,-160 984.44,-160 984.44,-160"/>
<polygon fill="black" stroke="black" points="984.44,-163.5 994.44,-160 984.44,-156.5 984.44,-163.5"/>
</g>
<!-- TruncateTextPipe -->
<g id="node6" class="node">
<title>TruncateTextPipe</title>
<polygon fill="#ffffb3" stroke="black" points="682.29,-122 565.71,-122 565.71,-86 682.29,-86 682.29,-122"/>
<text text-anchor="middle" x="624" y="-99.8" font-family="Times,serif" font-size="14.00">TruncateTextPipe</text>
</g>
<!-- TruncateTextPipe&#45;&gt;ComponentModule -->
<g id="edge6" class="edge">
<title>TruncateTextPipe&#45;&gt;ComponentModule</title>
<path fill="none" stroke="black" d="M624,-122.3C624,-140.27 624,-165 624,-165 624,-165 984.5,-165 984.5,-165"/>
<polygon fill="black" stroke="black" points="984.5,-168.5 994.5,-165 984.5,-161.5 984.5,-168.5"/>
</g>
<!-- SearchUserPipe -->
<g id="node7" class="node">
<title>SearchUserPipe</title>
<polygon fill="#ffffb3" stroke="black" points="547.9,-122 442.1,-122 442.1,-86 547.9,-86 547.9,-122"/>
<text text-anchor="middle" x="495" y="-99.8" font-family="Times,serif" font-size="14.00">SearchUserPipe</text>
</g>
<!-- SearchUserPipe&#45;&gt;ComponentModule -->
<g id="edge7" class="edge">
<title>SearchUserPipe&#45;&gt;ComponentModule</title>
<path fill="none" stroke="black" d="M495,-122.11C495,-141.34 495,-169 495,-169 495,-169 984.44,-169 984.44,-169"/>
<polygon fill="black" stroke="black" points="984.44,-172.5 994.44,-169 984.44,-165.5 984.44,-172.5"/>
</g>
<!-- SortUserPipe -->
<g id="node8" class="node">
<title>SortUserPipe</title>
<polygon fill="#ffffb3" stroke="black" points="424.15,-122 333.85,-122 333.85,-86 424.15,-86 424.15,-122"/>
<text text-anchor="middle" x="379" y="-99.8" font-family="Times,serif" font-size="14.00">SortUserPipe</text>
</g>
<!-- SortUserPipe&#45;&gt;ComponentModule -->
<g id="edge8" class="edge">
<title>SortUserPipe&#45;&gt;ComponentModule</title>
<path fill="none" stroke="black" d="M379,-122.03C379,-142.77 379,-174 379,-174 379,-174 984.43,-174 984.43,-174"/>
<polygon fill="black" stroke="black" points="984.43,-177.5 994.43,-174 984.43,-170.5 984.43,-177.5"/>
</g>
<!-- StatusUserPipe -->
<g id="node9" class="node">
<title>StatusUserPipe</title>
<polygon fill="#ffffb3" stroke="black" points="315.54,-122 214.46,-122 214.46,-86 315.54,-86 315.54,-122"/>
<text text-anchor="middle" x="265" y="-99.8" font-family="Times,serif" font-size="14.00">StatusUserPipe</text>
</g>
<!-- StatusUserPipe&#45;&gt;ComponentModule -->
<g id="edge9" class="edge">
<title>StatusUserPipe&#45;&gt;ComponentModule</title>
<path fill="none" stroke="black" d="M265,-122.29C265,-144.21 265,-178 265,-178 265,-178 984.52,-178 984.52,-178"/>
<polygon fill="black" stroke="black" points="984.52,-181.5 994.52,-178 984.52,-174.5 984.52,-181.5"/>
</g>
<!-- UsersModalListComponent -->
<g id="node10" class="node">
<title>UsersModalListComponent</title>
<polygon fill="#ffffb3" stroke="black" points="195.53,-122 24.47,-122 24.47,-86 195.53,-86 195.53,-122"/>
<text text-anchor="middle" x="110" y="-99.8" font-family="Times,serif" font-size="14.00">UsersModalListComponent</text>
</g>
<!-- UsersModalListComponent&#45;&gt;ComponentModule -->
<g id="edge10" class="edge">
<title>UsersModalListComponent&#45;&gt;ComponentModule</title>
<path fill="none" stroke="black" d="M110,-122.32C110,-145.66 110,-183 110,-183 110,-183 984.5,-183 984.5,-183"/>
<polygon fill="black" stroke="black" points="984.5,-186.5 994.5,-183 984.5,-179.5 984.5,-186.5"/>
</g>
<!-- CommonModule -->
<g id="node12" class="node">
<title>CommonModule</title>
<polygon fill="#8dd3c7" stroke="black" points="2089.67,-122 2086.67,-126 2065.67,-126 2062.67,-122 1978.33,-122 1978.33,-86 2089.67,-86 2089.67,-122"/>
<text text-anchor="middle" x="2034" y="-99.8" font-family="Times,serif" font-size="14.00">CommonModule</text>
</g>
<!-- CommonModule&#45;&gt;ComponentModule -->
<g id="edge11" class="edge">
<title>CommonModule&#45;&gt;ComponentModule</title>
<path fill="none" stroke="black" d="M2034,-122.32C2034,-145.66 2034,-183 2034,-183 2034,-183 1129.6,-183 1129.6,-183"/>
<polygon fill="black" stroke="black" points="1129.6,-179.5 1119.6,-183 1129.6,-186.5 1129.6,-179.5"/>
</g>
<!-- FormsModule -->
<g id="node13" class="node">
<title>FormsModule</title>
<polygon fill="#8dd3c7" stroke="black" points="1960.83,-122 1957.83,-126 1936.83,-126 1933.83,-122 1865.17,-122 1865.17,-86 1960.83,-86 1960.83,-122"/>
<text text-anchor="middle" x="1913" y="-99.8" font-family="Times,serif" font-size="14.00">FormsModule</text>
</g>
<!-- FormsModule&#45;&gt;ComponentModule -->
<g id="edge12" class="edge">
<title>FormsModule&#45;&gt;ComponentModule</title>
<path fill="none" stroke="black" d="M1913,-122.29C1913,-144.21 1913,-178 1913,-178 1913,-178 1129.6,-178 1129.6,-178"/>
<polygon fill="black" stroke="black" points="1129.6,-174.5 1119.6,-178 1129.6,-181.5 1129.6,-174.5"/>
</g>
<!-- HttpClientModule -->
<g id="node14" class="node">
<title>HttpClientModule</title>
<polygon fill="#8dd3c7" stroke="black" points="1847.16,-122 1844.16,-126 1823.16,-126 1820.16,-122 1728.84,-122 1728.84,-86 1847.16,-86 1847.16,-122"/>
<text text-anchor="middle" x="1788" y="-99.8" font-family="Times,serif" font-size="14.00">HttpClientModule</text>
</g>
<!-- HttpClientModule&#45;&gt;ComponentModule -->
<g id="edge13" class="edge">
<title>HttpClientModule&#45;&gt;ComponentModule</title>
<path fill="none" stroke="black" d="M1788,-122.03C1788,-142.77 1788,-174 1788,-174 1788,-174 1129.64,-174 1129.64,-174"/>
<polygon fill="black" stroke="black" points="1129.64,-170.5 1119.64,-174 1129.64,-177.5 1129.64,-170.5"/>
</g>
<!-- AppRoutingModule -->
<g id="node15" class="node">
<title>AppRoutingModule</title>
<polygon fill="#8dd3c7" stroke="black" points="1710.27,-122 1707.27,-126 1686.27,-126 1683.27,-122 1581.73,-122 1581.73,-86 1710.27,-86 1710.27,-122"/>
<text text-anchor="middle" x="1646" y="-99.8" font-family="Times,serif" font-size="14.00">AppRoutingModule</text>
</g>
<!-- AppRoutingModule&#45;&gt;ComponentModule -->
<g id="edge14" class="edge">
<title>AppRoutingModule&#45;&gt;ComponentModule</title>
<path fill="none" stroke="black" d="M1646,-122.11C1646,-141.34 1646,-169 1646,-169 1646,-169 1129.48,-169 1129.48,-169"/>
<polygon fill="black" stroke="black" points="1129.48,-165.5 1119.48,-169 1129.48,-172.5 1129.48,-165.5"/>
</g>
<!-- DragDropModule -->
<g id="node16" class="node">
<title>DragDropModule</title>
<polygon fill="#8dd3c7" stroke="black" points="1563.3,-122 1560.3,-126 1539.3,-126 1536.3,-122 1446.7,-122 1446.7,-86 1563.3,-86 1563.3,-122"/>
<text text-anchor="middle" x="1505" y="-99.8" font-family="Times,serif" font-size="14.00">DragDropModule</text>
</g>
<!-- DragDropModule&#45;&gt;ComponentModule -->
<g id="edge15" class="edge">
<title>DragDropModule&#45;&gt;ComponentModule</title>
<path fill="none" stroke="black" d="M1505,-122.3C1505,-140.27 1505,-165 1505,-165 1505,-165 1129.76,-165 1129.76,-165"/>
<polygon fill="black" stroke="black" points="1129.76,-161.5 1119.76,-165 1129.76,-168.5 1129.76,-161.5"/>
</g>
</g>
</svg>
