<?xml version="1.0" encoding="UTF-8" standalone="no"?>
<!DOCTYPE svg PUBLIC "-//W3C//DTD SVG 1.1//EN"
 "http://www.w3.org/Graphics/SVG/1.1/DTD/svg11.dtd">
<!-- Generated by graphviz version 2.44.1 (20200629.0846)
 -->
<!-- Title: dependencies Pages: 1 -->
<svg width="2905pt" height="360pt"
 viewBox="0.00 0.00 2905.00 360.00" xmlns="http://www.w3.org/2000/svg" xmlns:xlink="http://www.w3.org/1999/xlink">
<g id="graph0" class="graph" transform="scale(1 1) rotate(0) translate(4 356)">
<title>dependencies</title>
<polygon fill="white" stroke="transparent" points="-4,4 -4,-356 2901,-356 2901,4 -4,4"/>
<text text-anchor="start" x="1427.51" y="-42.4" font-family="sans-serif" font-weight="bold" font-size="14.00">Legend</text>
<polygon fill="#ffffb3" stroke="transparent" points="1214.5,-10 1214.5,-30 1234.5,-30 1234.5,-10 1214.5,-10"/>
<text text-anchor="start" x="1238.13" y="-15.4" font-family="sans-serif" font-size="14.00"> &#160;Declarations</text>
<polygon fill="#8dd3c7" stroke="transparent" points="1327.5,-10 1327.5,-30 1347.5,-30 1347.5,-10 1327.5,-10"/>
<text text-anchor="start" x="1351.23" y="-15.4" font-family="sans-serif" font-size="14.00"> &#160;Module</text>
<polygon fill="#80b1d3" stroke="transparent" points="1413.5,-10 1413.5,-30 1433.5,-30 1433.5,-10 1413.5,-10"/>
<text text-anchor="start" x="1437.28" y="-15.4" font-family="sans-serif" font-size="14.00"> &#160;Bootstrap</text>
<polygon fill="#fdb462" stroke="transparent" points="1510.5,-10 1510.5,-30 1530.5,-30 1530.5,-10 1510.5,-10"/>
<text text-anchor="start" x="1534.17" y="-15.4" font-family="sans-serif" font-size="14.00"> &#160;Providers</text>
<polygon fill="#fb8072" stroke="transparent" points="1606.5,-10 1606.5,-30 1626.5,-30 1626.5,-10 1606.5,-10"/>
<text text-anchor="start" x="1630.23" y="-15.4" font-family="sans-serif" font-size="14.00"> &#160;Exports</text>
<g id="clust1" class="cluster">
<title>cluster_AppModule</title>
<polygon fill="none" stroke="black" stroke-dasharray="1,5" points="1967,-70 1967,-344 2545,-344 2545,-70 1967,-70"/>
</g>
<g id="clust2" class="cluster">
<title>cluster_AppModule_declarations</title>
<polygon fill="none" stroke="black" points="2415,-154 2415,-206 2537,-206 2537,-154 2415,-154"/>
</g>
<g id="clust4" class="cluster">
<title>cluster_AppModule_imports</title>
<polygon fill="none" stroke="black" points="1975,-78 1975,-206 2407,-206 2407,-78 1975,-78"/>
</g>
<g id="clust6" class="cluster">
<title>cluster_AppModule_bootstrap</title>
<polygon fill="none" stroke="black" points="2137,-284 2137,-336 2261,-336 2261,-284 2137,-284"/>
</g>
<g id="clust8" class="cluster">
<title>cluster_AppRoutingModule</title>
<polygon fill="none" stroke="black" stroke-dasharray="1,5" points="2553,-146 2553,-214 2889,-214 2889,-146 2553,-146"/>
</g>
<g id="clust10" class="cluster">
<title>cluster_AppRoutingModule_imports</title>
<polygon fill="none" stroke="black" points="2687,-154 2687,-206 2881,-206 2881,-154 2687,-154"/>
</g>
<g id="clust11" class="cluster">
<title>cluster_AppRoutingModule_exports</title>
<polygon fill="none" stroke="black" points="2561,-154 2561,-206 2679,-206 2679,-154 2561,-154"/>
</g>
<g id="clust14" class="cluster">
<title>cluster_ComponentModule</title>
<polygon fill="none" stroke="black" stroke-dasharray="1,5" points="8,-70 8,-138 1959,-138 1959,-70 8,-70"/>
</g>
<g id="clust15" class="cluster">
<title>cluster_ComponentModule_declarations</title>
<polygon fill="none" stroke="black" points="536,-78 536,-130 1951,-130 1951,-78 536,-78"/>
</g>
<g id="clust26" class="cluster">
<title>cluster_ComponentModule_imports</title>
<polygon fill="none" stroke="black" points="16,-78 16,-130 528,-130 528,-78 16,-78"/>
</g>
<!-- AppComponent -->
<g id="node1" class="node">
<title>AppComponent</title>
<polygon fill="#ffffb3" stroke="black" points="2528.94,-198 2423.06,-198 2423.06,-162 2528.94,-162 2528.94,-198"/>
<text text-anchor="middle" x="2476" y="-175.8" font-family="Times,serif" font-size="14.00">AppComponent</text>
</g>
<!-- AppModule -->
<g id="node2" class="node">
<title>AppModule</title>
<polygon fill="#8dd3c7" stroke="black" points="2240.66,-263 2237.66,-267 2216.66,-267 2213.66,-263 2157.34,-263 2157.34,-227 2240.66,-227 2240.66,-263"/>
<text text-anchor="middle" x="2199" y="-240.8" font-family="Times,serif" font-size="14.00">AppModule</text>
</g>
<!-- AppComponent&#45;&gt;AppModule -->
<g id="edge1" class="edge">
<title>AppComponent&#45;&gt;AppModule</title>
<path fill="none" stroke="black" d="M2423.25,-180C2348.28,-180 2219.91,-180 2219.91,-180 2219.91,-180 2219.91,-216.89 2219.91,-216.89"/>
<polygon fill="black" stroke="black" points="2216.41,-216.89 2219.91,-226.89 2223.41,-216.89 2216.41,-216.89"/>
</g>
<!-- AppComponent  -->
<g id="node7" class="node">
<title>AppComponent </title>
<polygon fill="#80b1d3" stroke="black" points="2253.44,-328 2144.56,-328 2144.56,-292 2253.44,-292 2253.44,-328"/>
<text text-anchor="middle" x="2199" y="-305.8" font-family="Times,serif" font-size="14.00">AppComponent </text>
</g>
<!-- AppModule&#45;&gt;AppComponent  -->
<g id="edge6" class="edge">
<title>AppModule&#45;&gt;AppComponent </title>
<path fill="none" stroke="black" stroke-dasharray="1,5" d="M2199,-263.11C2199,-263.11 2199,-281.99 2199,-281.99"/>
<polygon fill="black" stroke="black" points="2195.5,-281.99 2199,-291.99 2202.5,-281.99 2195.5,-281.99"/>
</g>
<!-- BrowserModule -->
<g id="node3" class="node">
<title>BrowserModule</title>
<polygon fill="#8dd3c7" stroke="black" points="2252.47,-122 2249.47,-126 2228.47,-126 2225.47,-122 2145.53,-122 2145.53,-86 2252.47,-86 2252.47,-122"/>
<text text-anchor="middle" x="2199" y="-99.8" font-family="Times,serif" font-size="14.00">BrowserModule</text>
</g>
<!-- BrowserModule&#45;&gt;AppModule -->
<g id="edge2" class="edge">
<title>BrowserModule&#45;&gt;AppModule</title>
<path fill="none" stroke="black" d="M2199,-122.14C2199,-122.14 2199,-216.93 2199,-216.93"/>
<polygon fill="black" stroke="black" points="2195.5,-216.92 2199,-226.93 2202.5,-216.93 2195.5,-216.92"/>
</g>
<!-- AppRoutingModule -->
<g id="node4" class="node">
<title>AppRoutingModule</title>
<polygon fill="#8dd3c7" stroke="black" points="2399.27,-122 2396.27,-126 2375.27,-126 2372.27,-122 2270.73,-122 2270.73,-86 2399.27,-86 2399.27,-122"/>
<text text-anchor="middle" x="2335" y="-99.8" font-family="Times,serif" font-size="14.00">AppRoutingModule</text>
</g>
<!-- AppRoutingModule&#45;&gt;AppModule -->
<g id="edge3" class="edge">
<title>AppRoutingModule&#45;&gt;AppModule</title>
<path fill="none" stroke="black" d="M2356.46,-122.14C2356.46,-160.23 2356.46,-245 2356.46,-245 2356.46,-245 2250.78,-245 2250.78,-245"/>
<polygon fill="black" stroke="black" points="2250.78,-241.5 2240.78,-245 2250.78,-248.5 2250.78,-241.5"/>
</g>
<!-- ComponentModule -->
<g id="node6" class="node">
<title>ComponentModule</title>
<polygon fill="#8dd3c7" stroke="black" points="2107.38,-198 2104.38,-202 2083.38,-202 2080.38,-198 1982.62,-198 1982.62,-162 2107.38,-162 2107.38,-198"/>
<text text-anchor="middle" x="2045" y="-175.8" font-family="Times,serif" font-size="14.00">ComponentModule</text>
</g>
<!-- AppRoutingModule&#45;&gt;ComponentModule -->
<g id="edge22" class="edge">
<title>AppRoutingModule&#45;&gt;ComponentModule</title>
<path fill="none" stroke="black" d="M2313.54,-122.31C2313.54,-142.15 2313.54,-171 2313.54,-171 2313.54,-171 2117.62,-171 2117.62,-171"/>
<polygon fill="black" stroke="black" points="2117.62,-167.5 2107.62,-171 2117.62,-174.5 2117.62,-167.5"/>
</g>
<!-- RouterModule  -->
<g id="node9" class="node">
<title>RouterModule </title>
<polygon fill="#fb8072" stroke="black" points="2670.65,-198 2569.35,-198 2569.35,-162 2670.65,-162 2670.65,-198"/>
<text text-anchor="middle" x="2620" y="-175.8" font-family="Times,serif" font-size="14.00">RouterModule </text>
</g>
<!-- AppRoutingModule&#45;&gt;RouterModule  -->
<g id="edge8" class="edge">
<title>AppRoutingModule&#45;&gt;RouterModule </title>
<path fill="none" stroke="black" stroke-dasharray="5,2" d="M2399.31,-110C2483.37,-110 2620,-110 2620,-110 2620,-110 2620,-151.97 2620,-151.97"/>
<polygon fill="black" stroke="black" points="2616.5,-151.97 2620,-161.97 2623.5,-151.97 2616.5,-151.97"/>
</g>
<!-- ReactiveFormsModule -->
<g id="node5" class="node">
<title>ReactiveFormsModule</title>
<polygon fill="#8dd3c7" stroke="black" points="2127.3,-122 2124.3,-126 2103.3,-126 2100.3,-122 1982.7,-122 1982.7,-86 2127.3,-86 2127.3,-122"/>
<text text-anchor="middle" x="2055" y="-99.8" font-family="Times,serif" font-size="14.00">ReactiveFormsModule</text>
</g>
<!-- ReactiveFormsModule&#45;&gt;AppModule -->
<g id="edge4" class="edge">
<title>ReactiveFormsModule&#45;&gt;AppModule</title>
<path fill="none" stroke="black" d="M2117.3,-122.14C2117.3,-160.23 2117.3,-245 2117.3,-245 2117.3,-245 2147.19,-245 2147.19,-245"/>
<polygon fill="black" stroke="black" points="2147.19,-248.5 2157.19,-245 2147.19,-241.5 2147.19,-248.5"/>
</g>
<!-- ComponentModule&#45;&gt;AppModule -->
<g id="edge5" class="edge">
<title>ComponentModule&#45;&gt;AppModule</title>
<path fill="none" stroke="black" d="M2107.65,-189C2142.16,-189 2178.09,-189 2178.09,-189 2178.09,-189 2178.09,-216.97 2178.09,-216.97"/>
<polygon fill="black" stroke="black" points="2174.59,-216.97 2178.09,-226.97 2181.59,-216.97 2174.59,-216.97"/>
</g>
<!-- RouterModule.forRoot(args) -->
<g id="node8" class="node">
<title>RouterModule.forRoot(args)</title>
<polygon fill="#8dd3c7" stroke="black" points="2872.84,-198 2869.84,-202 2848.84,-202 2845.84,-198 2695.16,-198 2695.16,-162 2872.84,-162 2872.84,-198"/>
<text text-anchor="middle" x="2784" y="-175.8" font-family="Times,serif" font-size="14.00">RouterModule.forRoot(args)</text>
</g>
<!-- RouterModule.forRoot(args)&#45;&gt;AppRoutingModule -->
<g id="edge7" class="edge">
<title>RouterModule.forRoot(args)&#45;&gt;AppRoutingModule</title>
<path fill="none" stroke="black" d="M2784,-161.8C2784,-137.64 2784,-98 2784,-98 2784,-98 2409.33,-98 2409.33,-98"/>
<polygon fill="black" stroke="black" points="2409.33,-94.5 2399.33,-98 2409.33,-101.5 2409.33,-94.5"/>
</g>
<!-- DashboardComponent -->
<g id="node10" class="node">
<title>DashboardComponent</title>
<polygon fill="#ffffb3" stroke="black" points="1752.97,-122 1611.03,-122 1611.03,-86 1752.97,-86 1752.97,-122"/>
<text text-anchor="middle" x="1682" y="-99.8" font-family="Times,serif" font-size="14.00">DashboardComponent</text>
</g>
<!-- DashboardComponent&#45;&gt;ComponentModule -->
<g id="edge9" class="edge">
<title>DashboardComponent&#45;&gt;ComponentModule</title>
<path fill="none" stroke="black" d="M1682,-122.22C1682,-140.83 1682,-167 1682,-167 1682,-167 1972.6,-167 1972.6,-167"/>
<polygon fill="black" stroke="black" points="1972.6,-170.5 1982.6,-167 1972.6,-163.5 1972.6,-170.5"/>
</g>
<!-- UsersComponent -->
<g id="node11" class="node">
<title>UsersComponent</title>
<polygon fill="#ffffb3" stroke="black" points="1592.7,-122 1479.3,-122 1479.3,-86 1592.7,-86 1592.7,-122"/>
<text text-anchor="middle" x="1536" y="-99.8" font-family="Times,serif" font-size="14.00">UsersComponent</text>
</g>
<!-- UsersComponent&#45;&gt;ComponentModule -->
<g id="edge10" class="edge">
<title>UsersComponent&#45;&gt;ComponentModule</title>
<path fill="none" stroke="black" d="M1536,-122.03C1536,-141.58 1536,-170 1536,-170 1536,-170 1972.59,-170 1972.59,-170"/>
<polygon fill="black" stroke="black" points="1972.59,-173.5 1982.59,-170 1972.59,-166.5 1972.59,-173.5"/>
</g>
<!-- UsersModalComponent -->
<g id="node12" class="node">
<title>UsersModalComponent</title>
<polygon fill="#ffffb3" stroke="black" points="1461.75,-122 1312.25,-122 1312.25,-86 1461.75,-86 1461.75,-122"/>
<text text-anchor="middle" x="1387" y="-99.8" font-family="Times,serif" font-size="14.00">UsersModalComponent</text>
</g>
<!-- UsersModalComponent&#45;&gt;ComponentModule -->
<g id="edge11" class="edge">
<title>UsersModalComponent&#45;&gt;ComponentModule</title>
<path fill="none" stroke="black" d="M1387,-122.22C1387,-142.37 1387,-172 1387,-172 1387,-172 1972.5,-172 1972.5,-172"/>
<polygon fill="black" stroke="black" points="1972.5,-175.5 1982.5,-172 1972.5,-168.5 1972.5,-175.5"/>
</g>
<!-- HeaderComponent -->
<g id="node13" class="node">
<title>HeaderComponent</title>
<polygon fill="#ffffb3" stroke="black" points="1293.74,-122 1172.26,-122 1172.26,-86 1293.74,-86 1293.74,-122"/>
<text text-anchor="middle" x="1233" y="-99.8" font-family="Times,serif" font-size="14.00">HeaderComponent</text>
</g>
<!-- HeaderComponent&#45;&gt;ComponentModule -->
<g id="edge12" class="edge">
<title>HeaderComponent&#45;&gt;ComponentModule</title>
<path fill="none" stroke="black" d="M1233,-122.03C1233,-142.77 1233,-174 1233,-174 1233,-174 1972.3,-174 1972.3,-174"/>
<polygon fill="black" stroke="black" points="1972.3,-177.5 1982.3,-174 1972.3,-170.5 1972.3,-177.5"/>
</g>
<!-- SidebarComponent -->
<g id="node14" class="node">
<title>SidebarComponent</title>
<polygon fill="#ffffb3" stroke="black" points="1154.1,-122 1029.9,-122 1029.9,-86 1154.1,-86 1154.1,-122"/>
<text text-anchor="middle" x="1092" y="-99.8" font-family="Times,serif" font-size="14.00">SidebarComponent</text>
</g>
<!-- SidebarComponent&#45;&gt;ComponentModule -->
<g id="edge13" class="edge">
<title>SidebarComponent&#45;&gt;ComponentModule</title>
<path fill="none" stroke="black" d="M1092,-122.04C1092,-143.66 1092,-177 1092,-177 1092,-177 1972.47,-177 1972.47,-177"/>
<polygon fill="black" stroke="black" points="1972.47,-180.5 1982.47,-177 1972.47,-173.5 1972.47,-180.5"/>
</g>
<!-- TruncateTextPipe -->
<g id="node15" class="node">
<title>TruncateTextPipe</title>
<polygon fill="#ffffb3" stroke="black" points="1012.29,-122 895.71,-122 895.71,-86 1012.29,-86 1012.29,-122"/>
<text text-anchor="middle" x="954" y="-99.8" font-family="Times,serif" font-size="14.00">TruncateTextPipe</text>
</g>
<!-- TruncateTextPipe&#45;&gt;ComponentModule -->
<g id="edge14" class="edge">
<title>TruncateTextPipe&#45;&gt;ComponentModule</title>
<path fill="none" stroke="black" d="M954,-122.16C954,-144.35 954,-179 954,-179 954,-179 1972.42,-179 1972.42,-179"/>
<polygon fill="black" stroke="black" points="1972.42,-182.5 1982.42,-179 1972.42,-175.5 1972.42,-182.5"/>
</g>
<!-- SearchUserPipe -->
<g id="node16" class="node">
<title>SearchUserPipe</title>
<polygon fill="#ffffb3" stroke="black" points="877.9,-122 772.1,-122 772.1,-86 877.9,-86 877.9,-122"/>
<text text-anchor="middle" x="825" y="-99.8" font-family="Times,serif" font-size="14.00">SearchUserPipe</text>
</g>
<!-- SearchUserPipe&#45;&gt;ComponentModule -->
<g id="edge15" class="edge">
<title>SearchUserPipe&#45;&gt;ComponentModule</title>
<path fill="none" stroke="black" d="M825,-122.09C825,-145.13 825,-182 825,-182 825,-182 1972.4,-182 1972.4,-182"/>
<polygon fill="black" stroke="black" points="1972.4,-185.5 1982.4,-182 1972.4,-178.5 1972.4,-185.5"/>
</g>
<!-- SortUserPipe -->
<g id="node17" class="node">
<title>SortUserPipe</title>
<polygon fill="#ffffb3" stroke="black" points="754.15,-122 663.85,-122 663.85,-86 754.15,-86 754.15,-122"/>
<text text-anchor="middle" x="709" y="-99.8" font-family="Times,serif" font-size="14.00">SortUserPipe</text>
</g>
<!-- SortUserPipe&#45;&gt;ComponentModule -->
<g id="edge16" class="edge">
<title>SortUserPipe&#45;&gt;ComponentModule</title>
<path fill="none" stroke="black" d="M709,-122.15C709,-145.76 709,-184 709,-184 709,-184 1972.35,-184 1972.35,-184"/>
<polygon fill="black" stroke="black" points="1972.35,-187.5 1982.35,-184 1972.35,-180.5 1972.35,-187.5"/>
</g>
<!-- StatusUserPipe -->
<g id="node18" class="node">
<title>StatusUserPipe</title>
<polygon fill="#ffffb3" stroke="black" points="645.54,-122 544.46,-122 544.46,-86 645.54,-86 645.54,-122"/>
<text text-anchor="middle" x="595" y="-99.8" font-family="Times,serif" font-size="14.00">StatusUserPipe</text>
</g>
<!-- StatusUserPipe&#45;&gt;ComponentModule -->
<g id="edge17" class="edge">
<title>StatusUserPipe&#45;&gt;ComponentModule</title>
<path fill="none" stroke="black" d="M595,-122.2C595,-146.36 595,-186 595,-186 595,-186 1972.23,-186 1972.23,-186"/>
<polygon fill="black" stroke="black" points="1972.23,-189.5 1982.23,-186 1972.23,-182.5 1972.23,-189.5"/>
</g>
<!-- UsersModalListComponent -->
<g id="node19" class="node">
<title>UsersModalListComponent</title>
<polygon fill="#ffffb3" stroke="black" points="1942.53,-122 1771.47,-122 1771.47,-86 1942.53,-86 1942.53,-122"/>
<text text-anchor="middle" x="1857" y="-99.8" font-family="Times,serif" font-size="14.00">UsersModalListComponent</text>
</g>
<!-- UsersModalListComponent&#45;&gt;ComponentModule -->
<g id="edge18" class="edge">
<title>UsersModalListComponent&#45;&gt;ComponentModule</title>
<path fill="none" stroke="black" d="M1857,-122.3C1857,-140.27 1857,-165 1857,-165 1857,-165 1972.4,-165 1972.4,-165"/>
<polygon fill="black" stroke="black" points="1972.4,-168.5 1982.4,-165 1972.4,-161.5 1972.4,-168.5"/>
</g>
<!-- CommonModule -->
<g id="node20" class="node">
<title>CommonModule</title>
<polygon fill="#8dd3c7" stroke="black" points="135.67,-122 132.67,-126 111.67,-126 108.67,-122 24.33,-122 24.33,-86 135.67,-86 135.67,-122"/>
<text text-anchor="middle" x="80" y="-99.8" font-family="Times,serif" font-size="14.00">CommonModule</text>
</g>
<!-- CommonModule&#45;&gt;ComponentModule -->
<g id="edge19" class="edge">
<title>CommonModule&#45;&gt;ComponentModule</title>
<path fill="none" stroke="black" d="M80,-122.18C80,-148.99 80,-196 80,-196 80,-196 1972.4,-196 1972.4,-196"/>
<polygon fill="black" stroke="black" points="1972.4,-199.5 1982.4,-196 1972.4,-192.5 1972.4,-199.5"/>
</g>
<!-- FormsModule -->
<g id="node21" class="node">
<title>FormsModule</title>
<polygon fill="#8dd3c7" stroke="black" points="519.83,-122 516.83,-126 495.83,-126 492.83,-122 424.17,-122 424.17,-86 519.83,-86 519.83,-122"/>
<text text-anchor="middle" x="472" y="-99.8" font-family="Times,serif" font-size="14.00">FormsModule</text>
</g>
<!-- FormsModule&#45;&gt;ComponentModule -->
<g id="edge20" class="edge">
<title>FormsModule&#45;&gt;ComponentModule</title>
<path fill="none" stroke="black" d="M472,-122.03C472,-146.98 472,-189 472,-189 472,-189 1972.37,-189 1972.37,-189"/>
<polygon fill="black" stroke="black" points="1972.37,-192.5 1982.37,-189 1972.37,-185.5 1972.37,-192.5"/>
</g>
<!-- HttpClientModule -->
<g id="node22" class="node">
<title>HttpClientModule</title>
<polygon fill="#8dd3c7" stroke="black" points="406.16,-122 403.16,-126 382.16,-126 379.16,-122 287.84,-122 287.84,-86 406.16,-86 406.16,-122"/>
<text text-anchor="middle" x="347" y="-99.8" font-family="Times,serif" font-size="14.00">HttpClientModule</text>
</g>
<!-- HttpClientModule&#45;&gt;ComponentModule -->
<g id="edge21" class="edge">
<title>HttpClientModule&#45;&gt;ComponentModule</title>
<path fill="none" stroke="black" d="M347,-122.03C347,-147.51 347,-191 347,-191 347,-191 1972.55,-191 1972.55,-191"/>
<polygon fill="black" stroke="black" points="1972.55,-194.5 1982.55,-191 1972.55,-187.5 1972.55,-194.5"/>
</g>
<!-- DragDropModule -->
<g id="node23" class="node">
<title>DragDropModule</title>
<polygon fill="#8dd3c7" stroke="black" points="270.3,-122 267.3,-126 246.3,-126 243.3,-122 153.7,-122 153.7,-86 270.3,-86 270.3,-122"/>
<text text-anchor="middle" x="212" y="-99.8" font-family="Times,serif" font-size="14.00">DragDropModule</text>
</g>
<!-- DragDropModule&#45;&gt;ComponentModule -->
<g id="edge23" class="edge">
<title>DragDropModule&#45;&gt;ComponentModule</title>
<path fill="none" stroke="black" d="M212,-122.21C212,-148.51 212,-194 212,-194 212,-194 1972.43,-194 1972.43,-194"/>
<polygon fill="black" stroke="black" points="1972.43,-197.5 1982.43,-194 1972.43,-190.5 1972.43,-197.5"/>
</g>
</g>
</svg>
